<svg width="32" height="32" viewBox="0 0 32 32" fill="none" xmlns="http://www.w3.org/2000/svg">
<path d="M31.9999 16.0006C31.9999 24.8373 24.8361 32 16.0005 32C7.16381 32 0 24.8373 0 16.0006C0 7.16386 7.16381 0 16.0005 0C24.8361 0 31.9999 7.16382 31.9999 16.0006Z" fill="url(#paint0_linear_166_692)"/>
<path d="M15.9976 11.8402C13.6995 11.8402 11.8359 13.7029 11.8359 16.001C11.8359 18.2991 13.6995 20.1618 15.9976 20.1618C18.2957 20.1618 20.1584 18.2991 20.1584 16.001C20.1584 13.7029 18.2957 11.8402 15.9976 11.8402ZM15.9976 18.7019C14.506 18.7019 13.2967 17.4926 13.2967 16.001C13.2967 14.5094 14.506 13.3001 15.9976 13.3001C17.4892 13.3001 18.6985 14.5094 18.6985 16.001C18.6985 17.4926 17.4892 18.7019 15.9976 18.7019Z" fill="white"/>
<path d="M21.2963 11.6734C21.2963 12.2099 20.8609 12.6452 20.3236 12.6452C19.7871 12.6452 19.3518 12.2099 19.3518 11.6734C19.3518 11.136 19.7871 10.7007 20.3236 10.7007C20.861 10.7007 21.2963 11.136 21.2963 11.6734Z" fill="white"/>
<path d="M24.0557 12.6604C24.0161 11.7976 23.8798 11.2092 23.6793 10.6939C23.4717 10.1609 23.1947 9.70882 22.7444 9.25856C22.2941 8.80738 21.8421 8.53036 21.3091 8.32369C20.7937 8.12316 20.2045 7.98598 19.3426 7.94728C18.4781 7.90771 18.2019 7.89801 16.0014 7.89801C13.801 7.89801 13.5249 7.90768 12.6603 7.94728C11.7976 7.98598 11.2092 8.12316 10.693 8.32369C10.1609 8.53036 9.70882 8.80741 9.25853 9.25856C8.80737 9.70885 8.53035 10.1609 8.32366 10.6939C8.1231 11.2092 7.98592 11.7976 7.94721 12.6604C7.90768 13.5249 7.89795 13.801 7.89795 16.0015C7.89795 18.2019 7.90765 18.4781 7.94721 19.3426C7.98592 20.2045 8.1231 20.7938 8.32366 21.3092C8.53035 21.8421 8.80737 22.2942 9.25853 22.7444C9.70882 23.1947 10.1609 23.4726 10.693 23.6793C11.2092 23.8798 11.7976 24.0162 12.6603 24.0557C13.5249 24.0953 13.801 24.105 16.0014 24.105C18.2019 24.105 18.4781 24.0953 19.3426 24.0557C20.2045 24.0162 20.7937 23.8798 21.3091 23.6793C21.842 23.4726 22.2941 23.1947 22.7444 22.7444C23.1947 22.2942 23.4717 21.8421 23.6793 21.3092C23.8798 20.7938 24.0161 20.2045 24.0557 19.3426C24.0953 18.4781 24.1049 18.2019 24.1049 16.0015C24.1049 13.801 24.0953 13.5249 24.0557 12.6604ZM22.5975 19.2758C22.5615 20.0656 22.4295 20.4947 22.3178 20.7806C22.1709 21.1587 21.9959 21.4287 21.7119 21.7119C21.4287 21.996 21.1587 22.171 20.7805 22.3188C20.4947 22.4296 20.0655 22.5615 19.2757 22.5976C18.4218 22.6363 18.165 22.6451 16.0014 22.6451C13.8379 22.6451 13.5811 22.6362 12.7272 22.5976C11.9365 22.5615 11.5082 22.4296 11.2224 22.3188C10.8442 22.171 10.5742 21.996 10.2901 21.7119C10.007 21.4287 9.83108 21.1587 9.68418 20.7806C9.5734 20.4947 9.44147 20.0656 9.40537 19.2758C9.3667 18.4218 9.35789 18.165 9.35789 16.0015C9.35789 13.838 9.3667 13.5812 9.40537 12.7272C9.44144 11.9366 9.57337 11.5082 9.68418 11.2224C9.83108 10.8443 10.007 10.5742 10.2901 10.291C10.5742 10.007 10.8442 9.83108 11.2224 9.68421C11.5082 9.5734 11.9366 9.44147 12.7272 9.40541C13.5811 9.3667 13.8379 9.35792 16.0014 9.35792C18.165 9.35792 18.4209 9.3667 19.2757 9.40541C20.0655 9.44147 20.4947 9.5734 20.7805 9.68421C21.1587 9.83108 21.4287 10.007 21.7119 10.291C21.9959 10.5742 22.1709 10.8442 22.3178 11.2224C22.4295 11.5082 22.5615 11.9366 22.5975 12.7272C22.6362 13.5812 22.6441 13.838 22.6441 16.0015C22.6441 18.165 22.6362 18.4218 22.5975 19.2758Z" fill="white"/>
<defs>
<linearGradient id="paint0_linear_166_692" x1="9.83857" y1="36.3557" x2="22.0454" y2="-3.97143" gradientUnits="userSpaceOnUse">
<stop stop-color="#FEDA75"/>
<stop offset="0.2086" stop-color="#FA7E1E"/>
<stop offset="0.4283" stop-color="#D62976"/>
<stop offset="0.7188" stop-color="#962FBF"/>
<stop offset="1" stop-color="#4F5BD5"/>
</linearGradient>
</defs>
</svg>
