<svg width="209" height="44" viewBox="0 0 209 44" fill="none" xmlns="http://www.w3.org/2000/svg">
<rect y="4.40002" width="33.6525" height="35.2" rx="3" fill="#ED1E24"/>
<path d="M25.0334 24.6537C25.1677 23.8543 25.2434 23.0468 25.2601 22.2371L28.3201 10.5646H24.2023L23.154 14.121L22.8895 14.0298C22.1027 12.7565 21.0002 11.6922 19.6812 10.9328C18.3622 10.1735 16.8683 9.74292 15.334 9.67999C9.78073 9.69823 5.31354 15.2062 5.31354 22.0091C5.31354 28.812 9.78074 34.32 15.2868 34.32C18.4979 34.32 21.3501 32.4414 23.1729 29.5324V29.578L24.3629 33.3898H28.339L25.619 23.1399L25.0334 24.6537Z" fill="white" stroke="white" stroke-miterlimit="10"/>
<path d="M15.9407 32.56C19.8535 32.56 23.0254 27.8321 23.0254 22C23.0254 16.1679 19.8535 11.44 15.9407 11.44C12.0279 11.44 8.85596 16.1679 8.85596 22C8.85596 27.8321 12.0279 32.56 15.9407 32.56Z" fill="#ED1E24"/>
<path d="M177.068 9.36365H182.538L189.863 26.9792H190.152L197.477 9.36365H202.947V33.6741H198.658V16.9725H198.429L191.61 33.6029H188.405L181.586 16.9369H181.357V33.6741H177.068V9.36365Z" fill="#111111"/>
<path d="M167.957 9.36365H172.427V25.2462C172.427 26.9871 172.009 28.5184 171.174 29.84C170.347 31.1615 169.182 32.1943 167.68 32.9381C166.178 33.6741 164.423 34.0421 162.415 34.0421C160.399 34.0421 158.64 33.6741 157.138 32.9381C155.636 32.1943 154.472 31.1615 153.644 29.84C152.817 28.5184 152.403 26.9871 152.403 25.2462V9.36365H156.873V24.8782C156.873 25.8911 157.098 26.7933 157.548 27.5846C158.006 28.376 158.648 28.9972 159.476 29.4482C160.303 29.8914 161.283 30.113 162.415 30.113C163.548 30.113 164.528 29.8914 165.355 29.4482C166.19 28.9972 166.833 28.376 167.283 27.5846C167.732 26.7933 167.957 25.8911 167.957 24.8782V9.36365Z" fill="#111111"/>
<path d="M121.875 9.36365H127.345L134.67 26.9792H134.959L142.285 9.36365H147.754V33.6741H143.465V16.9725H143.236L136.417 33.6029H133.213L126.393 16.9369H126.165V33.6741H121.875V9.36365Z" fill="#111111"/>
<path d="M117.253 9.36365V33.6741H112.784V9.36365H117.253Z" fill="#111111"/>
<path d="M89.52 13.0553V9.36365H109.206V13.0553H101.58V33.6741H97.1463V13.0553H89.52Z" fill="#111111"/>
<path d="M68.989 33.6741V9.36365H78.2418C80.1373 9.36365 81.7276 9.71184 83.0127 10.4082C84.3059 11.1046 85.2818 12.0622 85.9404 13.2809C86.607 14.4916 86.9404 15.8686 86.9404 17.4117C86.9404 18.9707 86.607 20.3556 85.9404 21.5663C85.2737 22.7771 84.2898 23.7307 82.9886 24.4271C81.6875 25.1156 80.0851 25.4598 78.1815 25.4598H72.0492V21.8394H77.5792C78.6876 21.8394 79.5952 21.6494 80.302 21.2696C81.0088 20.8897 81.5309 20.3674 81.8682 19.7027C82.2136 19.038 82.3863 18.2743 82.3863 17.4117C82.3863 16.5492 82.2136 15.7895 81.8682 15.1326C81.5309 14.4758 81.0048 13.9654 80.2899 13.6014C79.5831 13.2294 78.6715 13.0435 77.5551 13.0435H73.4588V33.6741H68.989Z" fill="#111111"/>
<path d="M64.9816 21.5192C64.9816 24.1386 64.4836 26.3821 63.4877 28.2497C62.4997 30.1094 61.1504 31.5338 59.4396 32.523C57.7368 33.5122 55.8051 34.0068 53.6446 34.0068C51.484 34.0068 49.5483 33.5122 47.8375 32.523C46.1347 31.5259 44.7853 30.0975 43.7894 28.2378C42.8015 26.3702 42.3075 24.1307 42.3075 21.5192C42.3075 18.8998 42.8015 16.6603 43.7894 14.8006C44.7853 12.933 46.1347 11.5046 47.8375 10.5154C49.5483 9.52621 51.484 9.03162 53.6446 9.03162C55.8051 9.03162 57.7368 9.52621 59.4396 10.5154C61.1504 11.5046 62.4997 12.933 63.4877 14.8006C64.4836 16.6603 64.9816 18.8998 64.9816 21.5192ZM60.4877 21.5192C60.4877 19.6753 60.1946 18.1203 59.6083 16.8542C59.03 15.5801 58.2268 14.6186 57.1987 13.9697C56.1706 13.3128 54.9859 12.9844 53.6446 12.9844C52.3032 12.9844 51.1185 13.3128 50.0904 13.9697C49.0623 14.6186 48.2551 15.5801 47.6688 16.8542C47.0905 18.1203 46.8014 19.6753 46.8014 21.5192C46.8014 23.3631 47.0905 24.922 47.6688 26.1961C48.2551 27.4623 49.0623 28.4238 50.0904 29.0806C51.1185 29.7295 52.3032 30.054 53.6446 30.054C54.9859 30.054 56.1706 29.7295 57.1987 29.0806C58.2268 28.4238 59.03 27.4623 59.6083 26.1961C60.1946 24.922 60.4877 23.3631 60.4877 21.5192Z" fill="#111111"/>
</svg>
