<svg width="32" height="32" viewBox="0 0 32 32" fill="none" xmlns="http://www.w3.org/2000/svg">
<circle cx="16" cy="16" r="16" fill="#26D367"/>
<path d="M16 9.33301C19.6819 9.33301 22.667 12.3181 22.667 16C22.667 19.6819 19.6819 22.667 16 22.667C14.9817 22.667 14.0166 22.4385 13.1533 22.0303L10.708 22.4375C10.033 22.55 9.44713 21.9665 9.55664 21.291L9.95703 18.8193C9.55684 17.963 9.33301 17.0076 9.33301 16C9.33301 12.3181 12.3181 9.33301 16 9.33301ZM13.9258 13.333C13.5986 13.3331 13.3331 13.5986 13.333 13.9258C13.333 16.544 15.456 18.667 18.0742 18.667C18.4014 18.6669 18.6669 18.4014 18.667 18.0742V17.7832C18.667 17.422 18.4467 17.097 18.1113 16.9629L17.8008 16.8389C17.4531 16.6998 17.0561 16.8506 16.8887 17.1855C16.8779 17.1834 16.1439 17.0326 15.5557 16.4443C14.9678 15.8565 14.8168 15.123 14.8145 15.1113C15.1494 14.9439 15.3002 14.5469 15.1611 14.1992L15.0371 13.8887C14.903 13.5533 14.578 13.333 14.2168 13.333H13.9258Z" fill="white"/>
</svg>
